<?xml version="1.0" standalone="no"?>
<!DOCTYPE svg PUBLIC "-//W3C//DTD SVG 20010904//EN"
 "http://www.w3.org/TR/2001/REC-SVG-20010904/DTD/svg10.dtd">
<svg version="1.0" xmlns="http://www.w3.org/2000/svg"
 width="450.000000pt" height="450.000000pt" viewBox="0 0 450.000000 450.000000"
 preserveAspectRatio="xMidYMid meet">
<metadata>
Created by potrace 1.11, written by Peter Selinger 2001-2013
</metadata>
<g transform="translate(0.000000,450.000000) scale(0.100000,-0.100000)"
fill="#000000" stroke="none">
<path d="M1849 3855 c-33 -34 -36 -35 -89 -29 -70 8 -102 -14 -119 -81 -9 -37
-17 -47 -45 -59 -76 -32 -93 -79 -55 -150 18 -33 19 -43 8 -68 -22 -55 -15
-193 16 -293 15 -49 29 -97 32 -106 5 -19 -49 -38 -55 -20 -2 6 -24 42 -49 79
-53 80 -120 145 -181 176 -33 17 -50 34 -66 67 -26 54 -61 70 -109 50 -40 -18
-73 -18 -113 -1 -44 19 -80 6 -110 -39 -22 -34 -32 -40 -75 -46 -60 -8 -89
-39 -89 -96 0 -34 -5 -42 -40 -64 -59 -37 -68 -64 -43 -124 l20 -48 -23 -46
-22 -47 48 -80 c26 -44 77 -115 113 -158 99 -120 96 -108 49 -186 -22 -37 -51
-92 -63 -122 -17 -40 -29 -56 -51 -63 -48 -17 -115 -69 -139 -108 -13 -21 -28
-41 -35 -45 -40 -25 -43 -282 -4 -438 29 -117 58 -145 192 -186 33 -10 53 -11
73 -4 14 5 28 10 30 10 2 0 25 -30 51 -67 175 -246 503 -450 869 -542 212 -53
544 -69 760 -36 451 67 826 268 1052 562 57 74 57 75 98 70 54 -6 144 12 177
35 37 26 65 74 82 144 16 63 26 221 14 201 -4 -7 -8 -10 -8 -7 -1 3 -5 63 -9
135 l-8 129 -46 41 c-46 42 -124 75 -178 75 -16 0 -29 5 -29 11 0 21 102 0
169 -34 97 -49 106 -66 105 -200 -1 -84 0 -101 6 -67 5 25 9 77 9 115 1 75
-12 106 -60 144 -29 22 -134 71 -155 71 -7 0 -29 33 -47 73 -52 113 -118 206
-217 309 -49 51 -90 94 -90 96 0 2 12 19 26 38 19 24 32 33 45 29 20 -7 58 10
76 34 7 9 15 36 19 61 3 25 26 86 50 135 24 50 54 128 65 174 19 75 20 91 9
140 -34 155 -222 333 -415 393 -101 32 -260 32 -328 1 -124 -57 -192 -134
-237 -267 -15 -46 -44 -107 -64 -135 -19 -29 -38 -69 -42 -89 -3 -20 -18 -63
-32 -95 l-27 -57 -44 2 -45 3 -17 115 c-23 157 -46 268 -74 349 -30 90 -42
111 -63 112 -47 1 -83 25 -105 69 -28 57 -58 69 -126 51 -47 -12 -52 -11 -88
13 -54 37 -92 34 -134 -9z m122 -31 c28 -21 40 -24 74 -19 93 16 98 14 125
-39 22 -44 31 -52 75 -65 58 -19 64 -27 100 -162 48 -181 93 -561 110 -935 l7
-141 -94 -13 c-51 -7 -113 -18 -137 -26 -31 -9 -50 -10 -63 -3 -27 14 -164 1
-208 -20 -30 -14 -39 -15 -60 -4 -14 8 -40 12 -58 10 -26 -2 -33 1 -36 17 -48
266 -80 392 -180 701 -38 116 -45 153 -46 219 0 43 5 96 12 118 10 34 9 44
-12 87 -12 27 -20 56 -17 65 3 8 28 25 54 38 41 20 49 29 60 67 19 67 27 73
92 65 54 -6 57 -5 90 30 41 43 65 45 112 10z m1259 -95 c97 -22 252 -124 320
-208 43 -55 70 -119 70 -170 0 -76 -56 -239 -93 -270 -25 -20 -29 5 -9 46 28
54 62 169 62 207 0 139 -199 330 -388 372 -104 23 -205 16 -268 -20 l-49 -27
30 25 c17 14 48 32 70 40 47 17 191 20 255 5z m-2194 -359 l44 -20 44 20 c25
11 51 17 59 14 8 -3 23 -24 33 -47 15 -32 30 -47 66 -64 74 -36 136 -107 242
-279 55 -87 116 -182 136 -209 36 -49 71 -156 70 -217 -1 -20 -2 -21 -13 -7
-23 30 -72 92 -93 118 -31 38 -204 272 -244 331 -19 28 -40 58 -47 68 -31 44
23 -79 64 -147 81 -134 249 -372 282 -401 17 -15 81 -100 81 -108 0 -5 -16
-12 -36 -15 -30 -5 -40 -2 -60 21 -53 58 -302 371 -354 444 -30 42 -58 77 -61
77 -3 1 -6 -17 -7 -39 -1 -22 -3 -43 -4 -48 -3 -10 6 -24 121 -176 90 -118
181 -229 194 -234 21 -10 1 -18 -45 -18 -41 0 -57 5 -73 22 -71 77 -101 111
-190 218 -55 65 -107 128 -116 139 -15 19 -16 18 -28 -12 -7 -17 -19 -35 -27
-42 -11 -9 3 -30 75 -113 48 -55 117 -132 153 -169 50 -53 62 -70 51 -78 -32
-27 -70 6 -307 268 -26 28 -60 66 -74 83 l-28 31 -41 -19 -41 -18 172 -177
c95 -97 170 -179 168 -182 -3 -3 -22 -5 -42 -5 -31 0 -44 7 -81 48 -233 254
-271 300 -340 406 -44 66 -46 80 -22 131 16 33 16 37 0 70 -24 50 -22 82 6 96
45 23 67 52 67 86 0 53 15 73 56 73 48 0 70 13 99 60 14 22 30 40 36 40 5 0
30 -9 55 -20z m1767 -53 c8 -22 -19 -85 -61 -140 -22 -28 -58 -75 -80 -104
-54 -69 -62 -86 -62 -127 0 -54 19 -86 49 -86 47 0 88 47 132 150 23 52 57
114 76 138 73 89 119 93 90 7 -9 -25 -14 -52 -11 -60 10 -25 42 -27 73 -4 16
12 37 19 45 16 36 -14 12 -63 -93 -192 -129 -159 -174 -251 -155 -318 21 -72
92 -30 148 87 19 40 53 120 75 178 45 114 89 191 119 207 26 14 32 5 32 -44 0
-46 17 -69 47 -63 9 2 38 37 63 78 25 41 50 75 55 75 26 0 13 -56 -31 -135
-99 -179 -115 -243 -71 -277 l24 -17 -60 -86 c-32 -47 -73 -106 -89 -132 l-30
-48 -81 0 c-146 0 -232 -25 -250 -72 -3 -9 -11 -5 -23 12 -50 68 -107 102
-179 106 l-50 2 -7 174 c-4 95 -8 198 -10 228 -2 50 6 71 77 223 68 147 81
168 98 163 15 -3 31 6 59 35 38 39 72 50 81 26z m38 -134 c-22 -27 -61 -93
-86 -148 -44 -95 -78 -145 -97 -145 -5 0 4 17 21 38 16 20 42 69 59 109 38 93
109 190 140 193 2 0 -15 -21 -37 -47z m472 -55 c-12 -13 -37 -50 -57 -82 -25
-42 -37 -55 -41 -44 -11 29 72 148 104 148 11 0 10 -5 -6 -22z m-309 -3 c-25
-19 -40 -19 -24 0 7 8 20 15 28 15 13 0 12 -3 -4 -15z m120 -29 c-10 -8 -21
-12 -24 -10 -5 6 21 24 34 24 6 0 1 -6 -10 -14z m316 -1 c0 -3 -9 -18 -20 -33
-10 -15 -32 -67 -48 -117 -36 -112 -87 -215 -107 -215 -21 0 -19 10 10 62 14
25 36 74 49 109 29 77 68 169 79 187 8 12 37 17 37 7z m40 -53 c0 -32 -42
-127 -77 -174 -19 -27 -36 -48 -38 -48 -6 0 73 221 85 235 14 17 30 11 30 -13z
m-519 -259 c-34 -87 -61 -139 -81 -158 -34 -33 -54 -26 -23 8 26 28 44 63 83
163 17 44 38 90 47 102 32 50 22 8 -26 -115z m-346 -389 c9 -4 45 -42 81 -86
89 -111 103 -176 54 -255 -26 -44 -60 -64 -133 -78 -44 -9 -53 -13 -30 -14 27
-1 36 -8 64 -57 17 -31 47 -71 65 -90 41 -40 41 -44 8 -44 -20 0 -24 -4 -19
-19 4 -13 -4 -27 -26 -45 -30 -26 -32 -26 -58 -10 -57 37 -155 153 -195 229
l-27 50 7 -60 c3 -33 11 -85 18 -115 8 -36 9 -66 4 -82 -10 -28 -8 -28 -123
-31 -16 0 -42 2 -56 6 -35 9 -40 44 -39 256 2 165 2 166 28 195 24 25 24 27 5
17 -12 -6 -24 -11 -26 -11 -3 0 -5 45 -6 100 l-2 101 34 14 c19 8 63 18 98 23
76 11 251 15 274 6z m-995 -274 c0 -202 -3 -270 -12 -270 -6 0 -3 -8 8 -18 27
-25 51 -99 37 -113 -14 -14 -173 -69 -200 -69 -28 0 -32 14 -35 155 l-3 110
-35 3 c-19 2 -41 9 -49 15 -11 10 -13 5 -8 -28 14 -90 18 -211 9 -236 -9 -22
-22 -28 -91 -44 -45 -10 -84 -15 -87 -12 -4 4 1 18 10 33 23 35 14 42 -12 9
l-21 -26 -5 43 c-19 133 -25 262 -15 275 8 9 8 17 1 26 -11 13 -36 203 -36
281 -1 47 1 50 29 58 17 4 65 10 107 12 43 3 82 7 87 11 14 8 23 -67 19 -165
-3 -83 -3 -85 -28 -84 -14 1 -34 4 -45 9 -16 6 -16 4 3 -10 19 -14 35 -16 88
-10 l64 7 0 48 c0 27 -5 83 -11 125 -8 53 -8 80 -1 87 14 14 99 31 145 29 21
-1 46 3 55 8 9 6 20 11 25 11 4 0 7 -121 7 -270z m534 242 c2 -4 8 -58 12
-120 l7 -111 -29 -11 c-15 -6 -39 -8 -52 -5 -16 4 -21 2 -17 -6 5 -7 23 -9 53
-4 l45 7 -6 -59 c-13 -118 -48 -266 -70 -294 -26 -32 -77 -65 -77 -50 0 6 -4
11 -10 11 -5 0 -10 -6 -10 -14 0 -17 -80 -26 -125 -14 -45 11 -103 64 -129
117 -31 60 -53 164 -37 169 9 3 7 9 -4 22 -23 25 -50 261 -35 306 10 29 17 34
56 40 25 3 47 4 49 2 5 -5 -16 -89 -30 -122 -6 -14 -5 -17 4 -11 17 10 41 68
41 99 0 21 6 26 36 32 60 11 66 -3 52 -134 -9 -94 -14 -113 -29 -117 -11 -4
-19 -11 -19 -18 0 -8 3 -8 12 1 22 22 28 12 28 -47 0 -64 21 -126 52 -152 15
-14 18 -25 13 -56 -9 -55 10 -24 35 56 22 70 27 240 9 341 -23 132 -25 117 17
129 72 20 150 26 158 13z m1068 -24 c26 -17 63 -65 113 -144 37 -60 42 -128
13 -178 -34 -57 -67 -78 -140 -86 -35 -4 -51 -8 -36 -9 22 -1 34 -14 72 -81
26 -44 55 -84 66 -90 29 -15 25 -30 -9 -30 -23 0 -28 -4 -24 -19 4 -18 -37
-61 -59 -61 -32 0 -178 184 -211 265 l-16 40 0 -42 c-1 -23 4 -76 10 -118 9
-56 9 -83 1 -101 -11 -24 -42 -34 -42 -14 0 7 -6 7 -17 2 -19 -10 -127 -1
-139 11 -14 13 -16 162 -5 290 10 120 13 129 38 153 23 20 24 23 6 15 -12 -6
-24 -11 -27 -11 -10 0 -6 199 4 205 26 16 107 24 235 22 114 -2 146 -5 167
-19z m-2182 -55 c0 -10 -5 -55 -12 -101 -14 -101 -21 -107 -122 -99 -88 7
-133 -7 -162 -51 -20 -29 -22 -42 -17 -110 6 -90 24 -137 55 -146 40 -10 97
-6 135 9 27 11 39 12 49 4 8 -6 14 -7 14 -2 0 8 83 33 111 33 11 0 11 -157 0
-185 -7 -16 -24 -22 -92 -32 -46 -6 -105 -12 -131 -12 -27 -1 -48 -5 -48 -11
0 -17 -28 -11 -39 8 -9 14 -12 14 -19 4 -8 -11 -20 -9 -65 12 -64 31 -76 53
-102 195 -15 86 -21 271 -7 271 4 0 15 20 25 45 47 114 168 169 400 183 20 2
27 -3 27 -15z m2643 -53 c27 -32 67 -130 67 -165 0 -2 -15 3 -34 11 -24 12
-46 15 -77 10 -72 -11 -87 -29 -100 -121 -19 -137 16 -207 110 -218 50 -6 75
3 85 29 11 29 27 217 21 242 -6 23 -5 23 19 -4 21 -25 25 -27 30 -11 18 54 17
53 27 29 5 -14 3 -48 -6 -93 -22 -102 -20 -143 9 -176 32 -36 45 -24 55 51 12
91 24 78 17 -19 -8 -108 -35 -170 -85 -199 -43 -25 -163 -26 -209 -2 -20 10
-42 14 -58 10 -20 -5 -26 -2 -30 14 -4 13 -12 18 -23 15 -11 -3 -34 12 -63 40
-39 38 -46 51 -52 98 -9 72 10 285 30 345 18 53 75 120 119 140 17 7 49 13 72
14 36 0 46 -5 76 -40z m189 -327 c-4 -137 -22 -163 -22 -33 0 52 3 105 6 118
13 48 19 17 16 -85z m38 55 c0 -24 -5 -50 -10 -58 -7 -11 -10 2 -10 43 0 31 4
57 10 57 6 0 10 -19 10 -42z m-1699 -312 c18 -12 48 -16 125 -16 l101 0 27 40
c14 22 26 45 26 51 0 6 25 -10 55 -36 54 -46 57 -47 104 -40 27 4 58 13 68 20
16 12 22 10 50 -17 31 -30 37 -32 150 -40 102 -8 132 -15 237 -55 67 -25 151
-61 188 -81 78 -42 80 -35 -31 -124 -528 -428 -1224 -508 -1805 -206 -131 69
-406 264 -406 288 0 23 249 130 410 176 52 14 135 35 184 46 88 19 88 19 130
-2 31 -14 62 -20 115 -20 81 0 123 17 181 72 l35 33 17 -36 c9 -20 27 -44 39
-53z"/>
<path d="M1855 3687 c-82 -38 -111 -107 -75 -181 69 -144 330 -105 330 49 0
80 -66 137 -164 142 -37 2 -73 -2 -91 -10z"/>
<path d="M955 3226 c-39 -17 -70 -52 -90 -98 -19 -46 -19 -79 -1 -123 41 -97
181 -87 250 18 24 37 27 50 23 101 -3 51 -8 63 -35 87 -36 33 -94 38 -147 15z"/>
<path d="M2556 2274 c-3 -9 -6 -24 -6 -35 0 -17 -8 -19 -75 -19 -66 0 -75 -2
-75 -19 0 -10 -3 -40 -7 -66 l-6 -47 27 17 c22 15 40 17 101 12 l74 -7 11 35
c14 43 5 75 -21 75 -17 0 -19 5 -13 35 6 36 1 47 -10 19z"/>
<path d="M2500 1901 c0 -6 5 -13 10 -16 6 -3 10 1 10 9 0 9 -4 16 -10 16 -5 0
-10 -4 -10 -9z"/>
<path d="M1570 2321 c0 -6 5 -13 10 -16 6 -3 10 1 10 9 0 9 -4 16 -10 16 -5 0
-10 -4 -10 -9z"/>
<path d="M2002 1830 c0 -19 2 -27 5 -17 2 9 2 25 0 35 -3 9 -5 1 -5 -18z"/>
<path d="M3157 2233 c-4 -3 -7 -17 -7 -31 0 -24 -1 -24 -80 -20 l-80 3 0 -47
c0 -25 -3 -54 -7 -63 -6 -16 -4 -16 21 0 24 16 34 17 97 6 83 -15 99 -8 99 50
0 29 -5 39 -21 44 -16 6 -19 12 -14 36 7 29 4 35 -8 22z"/>
<path d="M2870 2109 c0 -5 5 -7 10 -4 6 3 10 8 10 11 0 2 -4 4 -10 4 -5 0 -10
-5 -10 -11z"/>
<path d="M3086 1855 c4 -8 8 -15 10 -15 2 0 4 7 4 15 0 8 -4 15 -10 15 -5 0
-7 -7 -4 -15z"/>
<path d="M670 1661 c0 -13 28 -33 41 -29 6 2 0 12 -15 21 -14 10 -26 13 -26 8z"/>
<path d="M924 1625 c-10 -8 -14 -14 -9 -15 15 0 40 18 34 24 -3 3 -14 -1 -25
-9z"/>
<path d="M3505 2133 l-20 -16 20 8 c11 4 26 8 33 8 6 0 12 4 12 9 0 13 -23 9
-45 -9z"/>
<path d="M3430 1734 c0 -14 27 -50 33 -44 3 3 -3 16 -13 30 -11 14 -20 20 -20
14z"/>
</g>
</svg>
